<?xml version="1.0" encoding="UTF-8"?>
<svg version="1.1" xmlns="http://www.w3.org/2000/svg" width="512" height="512">
<path d="M0 0 C3.79274229 3.88304568 4.48056454 6.19500023 5 11.5625 C4.82525804 16.00593853 3.5878433 19.35887358 0.625 22.6875 C-1.97779314 24.81705802 -4.66710976 26.74048597 -7.43359375 28.65234375 C-19.12688862 36.7429236 -31.71250576 46.70001727 -36.375 60.6875 C-37.09355087 68.71592411 -35.72396875 73.29454514 -31.125 79.9375 C5.09256909 120.24845528 87.34676477 125.54229046 137.625 131.6875 C136.83403931 130.68082275 136.83403931 130.68082275 136.02709961 129.65380859 C130.43346499 122.53463727 128.89341985 118.86550554 129.625 109.6875 C131.53891916 104.9530684 135.07868786 101.96065607 139.625 99.6875 C145.01928983 99.085943 150.18381023 99.00454176 154.86328125 102.11328125 C158.03270429 104.9453821 160.55999756 108.28463973 163.171875 111.625 C165.70060162 114.78188164 168.36393813 117.73625192 171.125 120.6875 C176.21207035 126.15487884 180.96699331 131.84885003 185.625 137.6875 C186.70974609 138.98880859 186.70974609 138.98880859 187.81640625 140.31640625 C190.58928586 143.95169334 190.77394526 146.96857888 190.953125 151.45703125 C189.88079908 158.74629437 184.45591954 163.24466251 179.4375 168.125 C178.70724609 168.85009766 177.97699219 169.57519531 177.22460938 170.32226562 C173.08230136 174.40586954 168.82522039 178.30051291 164.42211914 182.09985352 C161.10234589 185.03267317 158.08695509 188.2618149 155.01953125 191.453125 C150.43144789 195.73433819 145.9828101 197.87483879 139.625 197.6875 C135.29845048 196.80805618 132.38248796 195.44498796 129.25 192.3125 C126.08367053 187.19766008 125.2306737 183.8494685 126.08984375 177.89453125 C127.57741742 171.75964716 131.9313023 168.42112317 136.625 164.6875 C136.625 164.3575 136.625 164.0275 136.625 163.6875 C135.82956787 163.60298584 135.03413574 163.51847168 134.21459961 163.43139648 C-15.71538429 147.17007924 -15.71538429 147.17007924 -58.6875 96.875 C-68.217785 84.54736413 -69.70449896 70.72690913 -68.375 55.6875 C-64.4353253 33.77526075 -45.08185262 15.27602411 -27.58203125 2.97265625 C-18.47767955 -3.17487797 -9.67727779 -7.48218795 0 0 Z " fill="#000000" transform="translate(68.375,247.3125)"/>
<path d="M0 0 C9.26915158 7.09082584 15.74747804 16.01512327 17.625 27.75 C17.73194336 30.36277752 17.7922517 32.94984102 17.80200195 35.56274414 C17.80857315 36.33423798 17.81514435 37.10573181 17.82191467 37.90060425 C17.84156884 40.44545608 17.85329525 42.99024899 17.86328125 45.53515625 C17.86735678 46.40923063 17.8714323 47.28330502 17.87563133 48.1838665 C17.89646275 52.81422562 17.91077474 57.4445554 17.92016602 62.07495117 C17.93119896 66.83025299 17.96557111 71.58508285 18.00533772 76.34021854 C18.03163229 80.01996154 18.03986938 83.69959448 18.04344749 87.37942314 C18.04828365 89.13071299 18.05981157 90.88199892 18.07848549 92.63319588 C18.2317917 107.96809611 16.13942541 119.84395946 5.625 131.75 C-2.25475001 139.49842084 -13.23783567 143.39314178 -24.125 143.9375 C-35.81227145 143.69401518 -46.4982543 139.68558663 -55.1875 131.75 C-63.45010577 122.90043317 -67.50591145 112.14070428 -67.55200195 100.13671875 C-67.55857315 99.38633835 -67.56514435 98.63595795 -67.57191467 97.86283875 C-67.59156709 95.38772461 -67.60329589 92.91267111 -67.61328125 90.4375 C-67.61735678 89.58673889 -67.6214323 88.73597778 -67.62563133 87.85943604 C-67.64646368 83.35111742 -67.66077433 78.84282893 -67.67016602 74.33447266 C-67.68118917 69.70929923 -67.7155495 65.08461236 -67.75533772 60.45960999 C-67.78166341 56.87676181 -67.78987217 53.29402644 -67.79344749 49.71109009 C-67.79827699 48.0080743 -67.80978523 46.30506229 -67.82848549 44.60214233 C-67.98555621 29.34315505 -66.20566614 16.45587148 -55.375 4.75 C-39.90811301 -9.56048422 -17.70543611 -11.70540935 0 0 Z M-35.375 29.75 C-36.52168971 33.19006914 -36.52310839 35.88356765 -36.55200195 39.51293945 C-36.55857315 40.19624329 -36.56514435 40.87954712 -36.57191467 41.58355713 C-36.59161494 43.84346634 -36.60330282 46.1033092 -36.61328125 48.36328125 C-36.61735678 49.13635305 -36.6214323 49.90942486 -36.62563133 50.70592308 C-36.64647801 54.79767971 -36.66078583 58.88940295 -36.67016602 62.98120117 C-36.68122837 67.20133771 -36.71562976 71.42094668 -36.75533772 75.6408968 C-36.78151632 78.89148419 -36.78985891 82.14194609 -36.79344749 85.39262962 C-36.79831017 86.94792431 -36.80991519 88.50321351 -36.82848549 90.05840492 C-36.85290529 92.23898456 -36.85190771 94.41820167 -36.8449707 96.59887695 C-36.85083694 97.83781204 -36.85670319 99.07674713 -36.86274719 100.35322571 C-36.27776585 104.42715911 -34.93672802 106.564214 -32.375 109.75 C-29.16357666 111.91422008 -27.25053592 112.75 -23.375 112.75 C-19.3898766 111.42162553 -17.38386667 109.68889303 -14.375 106.75 C-13.2170696 103.27620879 -13.23377509 100.54529683 -13.21386719 96.87939453 C-13.20890228 96.18473083 -13.20393738 95.49006714 -13.19882202 94.77435303 C-13.18422171 92.47716276 -13.17740216 90.18004154 -13.171875 87.8828125 C-13.16612201 86.28482054 -13.16036429 84.6868286 -13.15460205 83.08883667 C-13.14409828 79.73809488 -13.13825146 76.38737703 -13.13476562 73.03662109 C-13.12928067 68.74698284 -13.1052502 64.45766196 -13.07679367 60.16812325 C-13.05815355 56.86696451 -13.05296098 53.56588205 -13.05142975 50.26467514 C-13.04840603 48.68345275 -13.04038696 47.10223161 -13.02724457 45.52106094 C-13.01015403 43.30692762 -13.01207116 41.09356739 -13.01855469 38.87939453 C-13.01490906 37.62047394 -13.01126343 36.36155334 -13.00750732 35.06448364 C-13.40710519 31.46043738 -14.18692151 29.61174559 -16.375 26.75 C-23.73176104 22.11204195 -29.7350477 22.98205724 -35.375 29.75 Z " fill="#000000" transform="translate(394.375,150.25)"/>
<path d="M0 0 C1.22267578 -0.01160156 2.44535156 -0.02320313 3.70507812 -0.03515625 C11.32418625 -0.01032483 17.17662687 0.14879226 23 5.5 C25.97845206 10.57439981 26.94302893 15.22125619 26.25 21.0625 C23.99502447 25.84304812 20.41217258 29.01266371 15.6875 31.375 C13.72627625 31.49349519 11.76141661 31.55406268 9.796875 31.5859375 C8.61222656 31.61429688 7.42757812 31.64265625 6.20703125 31.671875 C3.70977934 31.72363152 1.21236246 31.76799782 -1.28515625 31.8046875 C-2.47496094 31.835625 -3.66476562 31.8665625 -4.890625 31.8984375 C-6.52112793 31.9281665 -6.52112793 31.9281665 -8.18457031 31.95849609 C-11.79084314 32.43869446 -14.21301265 33.48930181 -17.3125 35.375 C-21.16137938 41.48011902 -21.00461266 48.31482486 -21.3125 55.375 C-20.60867187 55.26800781 -19.90484375 55.16101563 -19.1796875 55.05078125 C-7.23526206 53.60060949 3.3422431 55.43997349 13.28515625 62.43359375 C21.2658361 68.88302121 26.5727885 77.23865657 28.6875 87.375 C28.96368743 91.39209858 28.96491363 95.41192356 29 99.4375 C29.04350586 101.06075195 29.04350586 101.06075195 29.08789062 102.71679688 C29.18195669 114.77896012 25.35214306 125.18635552 17.09765625 134.08984375 C8.87509037 141.69329879 -1.16758148 145.19111738 -12.25390625 145.44140625 C-23.71005274 144.94850816 -32.91512324 140.79309862 -41.12109375 132.82421875 C-51.53470752 121.18547394 -52.78103138 108.20368341 -52.7109375 93.15625 C-52.71296421 91.60648462 -52.71588059 90.05672017 -52.71963501 88.50695801 C-52.72403032 85.27619244 -52.71771835 82.04567757 -52.70361328 78.81494141 C-52.6865229 74.70317877 -52.69637922 70.5920039 -52.71433067 66.48026276 C-52.72524467 63.28521408 -52.72168756 60.09030151 -52.7139473 56.89524841 C-52.71196625 55.38040596 -52.71432959 53.86555058 -52.72138596 52.35072327 C-52.78001028 36.23429271 -50.01413409 23.62379901 -38.79296875 11.70703125 C-27.79835945 1.37036707 -14.54929098 -0.14027169 0 0 Z M-20.3125 91.375 C-22.51757361 95.78514723 -21.74939258 101.57500685 -21.3125 106.375 C-20.07163301 109.62124919 -18.49365465 111.78442268 -15.3125 113.375 C-10.43416689 113.93480872 -8.39686307 114.12049961 -4.3125 111.3125 C-0.5482258 105.97337639 -1.4829401 98.51510321 -2.3125 92.375 C-3.54805169 89.02540803 -4.23910335 88.4879602 -7.3125 86.375 C-13.28169777 84.78642317 -16.51703427 86.54440725 -20.3125 91.375 Z " fill="#000000" transform="translate(263.3125,146.625)"/>
<path d="M0 0 C0.74369843 -0.00524185 1.48739685 -0.0104837 2.25363159 -0.0158844 C3.82532509 -0.02229045 5.39706662 -0.02098593 6.96875 -0.01245117 C9.33944405 -0.00400509 11.70767261 -0.03261344 14.078125 -0.06445312 C28.16022479 -0.13169997 38.41812119 2.95821301 49.2421875 12.43359375 C59.02649687 22.90808262 61.8590282 35.02131117 61.55859375 48.9765625 C61.22971002 55.5198351 59.48462403 61.33946257 55.6171875 66.67578125 C53.95734775 69.0078561 52.84884947 70.62548416 52.2421875 73.43359375 C53.56477464 76.7973737 55.25760256 79.49189761 57.33984375 82.44140625 C63.07213219 91.45769567 62.64182766 104.57853797 60.5546875 114.80078125 C56.46599153 126.82836189 48.43776968 136.39420956 37.1796875 142.30859375 C28.16817233 146.71422339 19.47674818 146.77074265 9.6171875 146.74609375 C8.32039063 146.76220703 7.02359375 146.77832031 5.6875 146.79492188 C4.43453125 146.79556641 3.1815625 146.79621094 1.890625 146.796875 C0.75802246 146.79985596 -0.37458008 146.80283691 -1.54150391 146.8059082 C-5.83014874 146.30946192 -9.1999343 144.85455629 -12.40234375 141.93359375 C-16.26773479 136.96934572 -17.18371104 133.71559716 -16.7578125 127.43359375 C-14.71463411 121.75809822 -11.16033809 118.13485654 -5.7578125 115.43359375 C-3.86957914 115.31535037 -1.97760009 115.25458428 -0.0859375 115.22265625 C1.62335938 115.18011719 1.62335938 115.18011719 3.3671875 115.13671875 C5.76807975 115.08497538 8.16914317 115.04060534 10.5703125 115.00390625 C18.84581787 114.87301785 18.84581787 114.87301785 26.2421875 111.43359375 C29.42151309 107.83035808 29.82306285 104.30681813 29.66015625 99.65234375 C28.92375933 95.74324607 27.17071742 94.1018099 24.2421875 91.43359375 C20.49349299 89.57295687 17.43817933 89.18436047 13.27734375 89.16015625 C12.14748047 89.13953125 11.01761719 89.11890625 9.85351562 89.09765625 C7.49160919 89.07165838 5.12960459 89.05340288 2.76757812 89.04296875 C-7.91252217 88.82388977 -7.91252217 88.82388977 -12.7578125 84.43359375 C-13.34820312 83.94117188 -13.93859375 83.44875 -14.546875 82.94140625 C-17.0013429 79.88519784 -17.5102151 76.26833396 -17.7578125 72.43359375 C-17.04621101 67.73702391 -15.70808107 64.40886939 -12.3828125 60.99609375 C-7.77068784 58.25078145 -4.17244227 57.19144947 1.20703125 57.16015625 C2.90182617 57.12921875 2.90182617 57.12921875 4.63085938 57.09765625 C6.99276581 57.07165838 9.35477041 57.05340288 11.71679688 57.04296875 C20.26824846 56.88142865 20.26824846 56.88142865 27.2421875 52.43359375 C29.58999891 49.44547013 29.66043831 46.21448187 29.5625 42.46484375 C29.02862614 39.07930217 27.43492652 36.99178927 25.2421875 34.43359375 C22.08906829 32.43594952 19.54515565 32.16336907 15.84765625 32.08984375 C14.80931641 32.06019531 13.77097656 32.03054687 12.70117188 32 C11.62158203 31.97808594 10.54199219 31.95617187 9.4296875 31.93359375 C-7.26854071 31.59096263 -7.26854071 31.59096263 -12.5703125 26.99609375 C-16.90010872 21.92404675 -17.19204289 18.89061101 -17.07421875 12.38671875 C-16.65013226 8.42857815 -15.48716191 6.31047556 -12.7578125 3.43359375 C-8.62511836 0.32356154 -5.01934962 -0.02089275 0 0 Z " fill="#000000" transform="translate(115.7578125,146.56640625)"/>
<path d="M0 0 C12.6000574 11.70431872 24.08198763 26.56888984 25.1875 44.37109375 C25.5242069 53.73734783 25.243081 62.11133206 20.8125 70.5625 C20.34972656 71.52027344 19.88695312 72.47804688 19.41015625 73.46484375 C1.98363766 106.57096831 -42.23179974 121.27863418 -75.4375 131.82421875 C-81.88710189 133.80433933 -88.37011915 135.66346655 -94.87564087 137.45013428 C-96.82205411 137.98543877 -98.76592892 138.52994646 -100.7097168 139.07470703 C-117.19366526 143.48545747 -117.19366526 143.48545747 -124.5625 139.9375 C-128.26444899 136.58811758 -130.82441157 134.04854424 -131.5703125 128.94140625 C-131.81260631 122.98905509 -131.315632 119.14931333 -127.1875 114.5625 C-123.89455394 111.63181065 -120.7716305 110.70189924 -116.52734375 109.6171875 C-115.17639538 109.26397579 -113.82548556 108.91061658 -112.47460938 108.55712891 C-111.7658667 108.37514954 -111.05712402 108.19317017 -110.3269043 108.00567627 C-52.92530383 94.45460557 -52.92530383 94.45460557 -9.2109375 58.41015625 C-6.30735896 53.16819957 -6.18068677 47.2496133 -7.765625 41.4453125 C-12.53499474 30.99605698 -21.0617805 23.43107519 -30.171875 16.8515625 C-37.64992775 11.17521676 -37.64992775 11.17521676 -39.1875 6.5625 C-39.7186472 0.6279515 -39.76380565 -4.43067209 -36.1875 -9.4375 C-22.59715005 -20.36886844 -10.84787704 -9.48357348 0 0 Z " fill="#000000" transform="translate(487.1875,257.4375)"/>
<path d="M0 0 C5.30395813 4.955255 9.32567577 10.24381246 12 17 C12.4125 18.03125 12.825 19.0625 13.25 20.125 C15.42715698 31.37364438 14.46521763 42.20962031 8.71484375 52.2421875 C1.8594965 62.05736434 -7.20869701 68.6417394 -19 71 C-31.60422433 71.88810253 -41.79473488 69.61636808 -52 62 C-60.32047783 54.65583043 -64.73988223 45.55868562 -66 34.5625 C-66.44281927 22.98000851 -63.42496529 12.96020248 -56 4 C-40.54804917 -11.40009865 -17.50447337 -13.55565278 0 0 Z M-32 25 C-34.44988842 27.44988842 -34.7658669 28.56604793 -35 32 C-33.83112984 35.13749359 -32.85573818 37.29707221 -30.25 39.4375 C-26.82046336 40.29488416 -24.40138086 39.91108416 -21 39 C-18.34115399 37.00979883 -18.34115399 37.00979883 -17 34 C-17 30.0276825 -17.3849365 27.83472904 -19.75 24.625 C-24.52363046 21.177378 -27.3265438 21.58964007 -32 25 Z " fill="#000000" transform="translate(473,76)"/>
</svg>
