<?xml version="1.0" standalone="no"?>
<!DOCTYPE svg PUBLIC "-//W3C//DTD SVG 20010904//EN"
 "http://www.w3.org/TR/2001/REC-SVG-20010904/DTD/svg10.dtd">
<svg version="1.0" xmlns="http://www.w3.org/2000/svg"
 width="512.000000pt" height="512.000000pt" viewBox="0 0 512.000000 512.000000"
 preserveAspectRatio="xMidYMid meet">

<g transform="translate(0.000000,512.000000) scale(0.100000,-0.100000)"
fill="#000000" stroke="none">
<path d="M1523 5096 l-28 -24 0 -207 0 -207 28 -24 c37 -31 81 -31 112 1 25
24 25 25 25 230 0 205 0 206 -25 230 -31 32 -75 32 -112 1z"/>
<path d="M964 4930 c-30 -12 -54 -49 -54 -84 0 -25 24 -54 144 -175 134 -135
147 -145 182 -145 46 0 84 39 84 86 0 27 -20 51 -142 174 -143 142 -171 161
-214 144z"/>
<path d="M2435 4769 c-176 -20 -404 -95 -558 -186 -367 -215 -614 -563 -700
-987 -22 -111 -22 -111 -22 -1206 0 -1221 -3 -1164 71 -1390 72 -222 183 -401
358 -575 214 -213 465 -346 761 -401 85 -16 150 -19 435 -19 368 0 417 5 610
67 428 137 784 487 924 908 75 227 71 144 71 1410 0 1059 -1 1141 -18 1220
-135 631 -636 1089 -1269 1159 -114 13 -547 12 -663 0z m255 -312 l0 -152
-685 -685 -685 -685 0 177 0 178 661 660 c508 507 666 660 685 660 l24 0 0
-153z m508 123 c486 -99 857 -454 989 -948 25 -93 27 -110 31 -415 l4 -317
-554 2 -553 3 -5 345 c-5 333 -6 347 -28 391 -36 73 -87 125 -157 160 l-65 32
0 390 0 390 118 -6 c65 -3 164 -15 220 -27z m-1338 -505 c-278 -278 -507 -500
-508 -495 -8 23 52 202 102 306 127 259 331 463 590 589 104 51 255 103 301
104 13 1 -151 -170 -485 -504z m830 -129 l0 -113 -64 -32 c-113 -55 -181 -158
-192 -288 l-6 -68 -272 -272 -271 -273 -180 0 -180 0 580 580 c319 319 581
580 582 580 2 0 3 -51 3 -114z m156 -295 c23 -10 52 -34 65 -52 l24 -34 3
-401 3 -400 -23 -34 c-36 -54 -83 -80 -140 -80 -66 0 -114 24 -146 73 l-27 41
-3 370 c-2 242 0 384 7 407 15 51 48 88 95 110 52 23 90 23 142 0z m-416 -601
l0 -150 -152 0 -153 0 150 150 c82 83 151 150 152 150 2 0 3 -67 3 -150z m24
-347 c12 -47 73 -130 120 -163 101 -69 229 -82 336 -34 73 32 149 110 175 177
l18 47 558 0 559 0 0 -704 c0 -761 -1 -784 -56 -957 -103 -328 -333 -599 -640
-756 -109 -56 -248 -103 -364 -124 -53 -10 -169 -14 -395 -14 -274 0 -332 3
-405 19 -265 57 -477 172 -660 355 -215 216 -336 471 -370 776 -5 50 -10 380
-10 748 l0 657 564 0 564 0 6 -27z"/>
<path d="M756 4329 c-32 -26 -36 -84 -7 -120 19 -24 23 -24 224 -27 201 -3
205 -3 231 20 40 35 44 77 11 116 l-27 32 -203 0 c-190 0 -204 -1 -229 -21z"/>
</g>
</svg>
