<?xml version="1.0" standalone="no"?>
<!DOCTYPE svg PUBLIC "-//W3C//DTD SVG 20010904//EN"
 "http://www.w3.org/TR/2001/REC-SVG-20010904/DTD/svg10.dtd">
<svg version="1.0" xmlns="http://www.w3.org/2000/svg"
 width="512.000000pt" height="512.000000pt" viewBox="0 0 512.000000 512.000000"
 preserveAspectRatio="xMidYMid meet">

<g transform="translate(0.000000,512.000000) scale(0.100000,-0.100000)"
fill="#000000" stroke="none">
<path d="M664 4751 c-21 -16 -173 -163 -336 -328 -288 -290 -298 -301 -298
-339 0 -37 10 -49 328 -366 314 -315 329 -328 365 -328 49 0 87 36 87 82 0 29
-26 58 -247 280 l-247 248 527 0 528 0 24 25 c37 36 34 86 -6 119 l-31 26
-516 0 -517 0 232 233 c127 127 236 242 242 254 18 36 13 63 -18 94 -37 37
-67 37 -117 0z"/>
<path d="M4339 4751 c-31 -31 -36 -58 -18 -94 6 -12 115 -127 242 -254 l232
-233 -518 0 -519 0 -29 -29 c-37 -38 -39 -82 -4 -116 l24 -25 528 0 527 0
-247 -248 c-221 -222 -247 -251 -247 -280 0 -46 38 -82 87 -82 36 0 51 13 365
328 319 318 328 328 328 367 0 38 -9 48 -312 353 -172 172 -325 320 -340 328
-40 21 -66 17 -99 -15z"/>
<path d="M2595 4136 c-61 -19 -97 -41 -136 -83 -56 -58 -72 -98 -76 -188 -6
-109 -4 -106 -54 -88 -25 8 -80 14 -133 14 -183 1 -284 -72 -326 -236 -9 -37
-14 -238 -19 -794 l-6 -745 -150 133 c-177 155 -230 186 -325 186 -114 -1
-228 -73 -273 -174 -30 -66 -28 -167 5 -246 29 -70 948 -1519 985 -1552 l24
-23 750 0 750 0 24 24 c35 35 257 730 345 1076 51 202 60 284 59 540 -1 381
-11 547 -36 595 -61 116 -195 175 -398 175 -92 0 -93 0 -99 26 -4 14 -29 48
-55 74 -64 64 -118 80 -266 80 l-112 0 -6 473 c-6 486 -9 524 -50 603 -26 51
-100 111 -158 128 -63 19 -207 20 -264 2z m233 -176 c66 -40 65 -25 70 -749
l5 -655 23 -23 c15 -15 35 -23 56 -23 67 1 88 39 88 160 l0 92 120 -4 c168 -4
163 2 170 -214 l5 -166 28 -24 c36 -31 68 -30 106 2 31 25 31 27 31 119 l0 93
60 7 c118 14 225 -18 254 -74 22 -41 35 -667 17 -791 -23 -163 -117 -502 -267
-968 l-75 -232 -667 0 -667 1 -440 690 c-242 380 -452 714 -468 741 -20 37
-27 65 -27 103 0 48 3 56 34 83 68 59 122 51 216 -35 192 -174 394 -344 415
-349 33 -8 79 11 93 39 8 15 12 289 15 867 3 582 8 856 16 881 6 19 23 46 37
60 22 21 37 24 109 27 63 3 91 0 119 -13 67 -32 66 -23 67 -537 0 -331 4 -473
12 -498 25 -72 115 -78 149 -10 17 32 18 86 18 686 l0 651 22 28 c31 39 73 54
153 55 53 0 78 -5 103 -20z"/>
</g>
</svg>
