<?xml version="1.0" standalone="no"?>
<!DOCTYPE svg PUBLIC "-//W3C//DTD SVG 20010904//EN"
 "http://www.w3.org/TR/2001/REC-SVG-20010904/DTD/svg10.dtd">
<svg version="1.0" xmlns="http://www.w3.org/2000/svg"
 width="512.000000pt" height="512.000000pt" viewBox="0 0 512.000000 512.000000"
 preserveAspectRatio="xMidYMid meet">

<g transform="translate(0.000000,512.000000) scale(0.100000,-0.100000)"
fill="#000000" stroke="none">
<path d="M4066 4908 c-50 -45 -47 -59 68 -283 59 -115 105 -209 103 -211 -1
-2 -40 8 -87 22 -106 30 -134 30 -165 -1 -32 -31 -32 -75 -2 -110 18 -21 59
-36 216 -80 106 -30 204 -55 216 -55 13 0 32 8 44 18 27 21 160 372 161 423 0
47 -33 79 -81 79 -49 0 -71 -27 -110 -134 l-32 -88 -107 208 c-71 137 -116
212 -131 220 -35 20 -65 17 -93 -8z"/>
<path d="M770 4878 c-13 -5 -136 -79 -274 -166 -297 -185 -360 -240 -425 -373
-53 -107 -75 -208 -68 -314 4 -51 83 -428 217 -1035 233 -1050 238 -1078 205
-1226 -21 -96 -58 -178 -159 -349 -78 -133 -84 -151 -64 -188 23 -44 74 -60
118 -37 10 5 56 76 103 157 158 273 182 346 181 563 l0 145 -218 980 c-199
895 -217 986 -213 1050 9 127 75 253 169 323 29 22 155 104 281 182 125 78
234 151 242 163 45 65 -21 152 -95 125z"/>
<path d="M1027 4606 c-191 -129 -357 -242 -367 -251 -48 -44 -7 -138 60 -138
44 0 758 476 767 512 16 61 -18 111 -76 111 -30 -1 -94 -40 -384 -234z"/>
<path d="M2310 4810 c-246 -31 -401 -121 -795 -464 -88 -77 -250 -217 -361
-312 -111 -95 -204 -180 -208 -189 -21 -57 18 -115 78 -115 40 0 72 26 490
390 142 124 306 262 365 308 117 91 267 172 371 199 96 25 300 22 465 -6 228
-40 661 -141 713 -168 34 -17 65 -60 75 -103 16 -69 -44 -164 -111 -176 -19
-4 -129 1 -246 11 -273 23 -574 24 -676 1 -88 -19 -219 -79 -304 -140 -188
-135 -410 -440 -446 -612 -21 -101 -8 -188 89 -589 107 -442 119 -484 170
-562 147 -228 443 -308 684 -187 84 43 110 67 312 294 315 353 367 405 443
442 60 30 75 33 157 33 78 0 97 -4 146 -28 69 -34 145 -112 154 -158 9 -51 -4
-74 -112 -205 -148 -178 -328 -414 -495 -649 -82 -115 -175 -246 -206 -290
-31 -44 -106 -130 -167 -191 -92 -92 -142 -131 -305 -239 -342 -227 -535 -381
-787 -630 -146 -143 -163 -164 -163 -193 0 -24 9 -42 29 -63 53 -52 65 -46
244 128 255 247 456 408 737 591 188 123 286 200 385 303 103 107 127 137 272
344 233 333 423 584 604 800 112 134 133 176 133 270 1 92 -33 166 -108 239
-201 192 -515 195 -719 6 -61 -55 -265 -277 -459 -497 -92 -104 -117 -126
-175 -155 -61 -30 -76 -33 -158 -33 -82 0 -97 3 -157 33 -81 39 -149 111 -177
186 -10 28 -61 223 -112 432 -128 522 -127 532 16 747 77 116 200 246 291 307
42 27 80 50 85 50 5 0 47 -29 92 -65 104 -81 132 -126 131 -210 0 -53 -13 -91
-119 -345 -113 -272 -121 -287 -172 -337 -44 -44 -53 -58 -53 -88 0 -68 65
-104 129 -71 36 19 105 95 130 144 44 86 242 577 253 625 26 122 -27 276 -123
360 l-50 44 62 6 c70 6 409 -8 538 -23 123 -14 222 -12 270 5 103 36 177 120
207 234 36 143 -36 296 -171 363 -35 18 -351 96 -557 137 -278 57 -496 78
-628 61z"/>
<path d="M4628 3835 c-28 -15 -39 -42 -133 -301 -39 -108 -45 -134 -36 -156
15 -40 54 -62 96 -54 42 8 55 26 91 126 15 41 30 79 34 83 4 5 64 -104 133
-240 69 -137 134 -256 144 -265 30 -27 65 -30 100 -9 61 38 58 51 -86 340 -72
144 -128 261 -124 261 5 0 49 -11 100 -25 100 -28 128 -25 157 17 9 12 16 35
16 51 0 53 -31 69 -248 130 -111 31 -205 57 -209 57 -5 -1 -20 -7 -35 -15z"/>
</g>
</svg>
