<?xml version="1.0" standalone="no"?>
<!DOCTYPE svg PUBLIC "-//W3C//DTD SVG 20010904//EN"
 "http://www.w3.org/TR/2001/REC-SVG-20010904/DTD/svg10.dtd">
<svg version="1.0" xmlns="http://www.w3.org/2000/svg"
 width="512.000000pt" height="512.000000pt" viewBox="0 0 512.000000 512.000000"
 preserveAspectRatio="xMidYMid meet">

<g transform="translate(0.000000,512.000000) scale(0.100000,-0.100000)"
fill="#000000" stroke="none">
<path d="M3220 5106 c-19 -7 -47 -19 -61 -27 -15 -8 -434 -355 -933 -772 -618
-518 -908 -767 -912 -783 -8 -30 12 -81 37 -94 39 -21 77 -11 136 37 32 26
330 275 663 553 333 278 716 599 852 713 136 113 259 209 273 213 67 17 144
-30 163 -99 13 -47 0 -95 -36 -139 -15 -18 -268 -316 -562 -663 -294 -347
-551 -650 -571 -675 -113 -140 -181 -360 -165 -534 9 -94 110 -522 145 -612
67 -172 206 -322 375 -404 185 -90 455 -137 731 -127 186 7 290 23 482 73 177
47 252 49 340 9 102 -45 192 -159 193 -242 0 -40 -34 -69 -93 -78 -76 -13
-390 -106 -527 -157 -439 -163 -783 -351 -1145 -623 -264 -199 -595 -508 -611
-570 -14 -56 45 -115 100 -101 16 4 60 41 104 88 42 44 140 137 217 206 530
473 1119 789 1805 966 189 49 213 60 262 114 46 51 61 99 56 177 -12 190 -207
381 -423 415 -86 14 -128 8 -325 -40 -236 -58 -286 -65 -495 -65 -198 0 -265
8 -439 51 -176 44 -311 135 -394 267 -53 85 -71 138 -132 392 -102 424 -81
509 209 852 94 111 175 204 180 208 16 10 156 -110 177 -151 39 -79 29 -121
-95 -419 -62 -148 -121 -282 -132 -297 -33 -47 -34 -80 -4 -116 48 -57 112
-40 159 41 38 65 245 572 257 630 32 147 -37 296 -185 402 -30 22 -56 44 -56
48 0 5 166 204 369 443 404 476 406 478 405 601 -1 196 -216 354 -394 289z"/>
<path d="M1139 4532 c-20 -9 -137 -80 -260 -157 -259 -162 -341 -233 -402
-351 -49 -95 -67 -170 -67 -280 0 -84 20 -183 206 -1021 226 -1021 232 -1053
199 -1199 -21 -98 -51 -164 -149 -329 -43 -73 -76 -141 -76 -156 0 -42 35 -79
76 -79 20 0 44 4 54 10 23 12 173 268 216 369 49 115 67 221 61 360 -4 104
-26 212 -212 1046 -198 892 -206 934 -203 1020 3 76 9 101 35 157 50 108 92
143 362 313 136 84 255 162 264 173 25 27 22 84 -5 109 -34 31 -59 34 -99 15z"/>
<path d="M1743 4500 c-43 -18 -710 -469 -717 -485 -20 -53 25 -125 78 -125 16
0 150 83 380 236 310 206 357 241 366 270 14 41 -5 84 -45 102 -30 14 -32 14
-62 2z"/>
<path d="M3552 4178 c-19 -22 -146 -346 -158 -407 -9 -41 36 -91 82 -91 46 0
76 31 99 101 10 30 25 70 33 89 l14 35 104 -207 c111 -221 131 -247 189 -232
32 8 65 49 65 80 0 14 -45 115 -101 225 -55 111 -99 203 -97 205 2 1 41 -8 88
-22 104 -30 122 -30 156 0 35 30 39 86 7 118 -22 21 -381 128 -433 128 -15 0
-36 -10 -48 -22z"/>
<path d="M4100 3100 c-45 -45 -41 -56 99 -331 73 -143 127 -259 120 -259 -6 0
-44 9 -82 21 -97 29 -136 28 -164 -6 -40 -46 -24 -111 34 -133 15 -6 111 -34
212 -62 248 -70 226 -82 320 170 39 106 71 208 71 226 0 62 -62 99 -118 70
-24 -12 -36 -32 -61 -97 -17 -44 -31 -85 -31 -89 0 -43 -37 15 -142 222 -67
134 -132 253 -145 266 -29 28 -85 30 -113 2z"/>
</g>
</svg>
