<?xml version="1.0" standalone="no"?>
<!DOCTYPE svg PUBLIC "-//W3C//DTD SVG 20010904//EN"
 "http://www.w3.org/TR/2001/REC-SVG-20010904/DTD/svg10.dtd">
<svg version="1.0" xmlns="http://www.w3.org/2000/svg"
 width="176.000000pt" height="150.000000pt" viewBox="0 0 176.000000 150.000000"
 preserveAspectRatio="xMidYMid meet">

<g transform="translate(0.000000,150.000000) scale(0.100000,-0.100000)"
fill="#000000" stroke="none">
<path d="M853 1438 c-6 -7 -67 -110 -136 -228 -69 -118 -249 -426 -401 -685
l-276 -470 826 -3 c455 -1 829 0 831 2 3 2 -111 199 -253 438 -279 471 -495
836 -538 911 -28 49 -37 55 -53 35z m142 -650 c177 -299 246 -420 242 -431 -1
-5 -15 9 -30 31 -43 66 -88 112 -128 132 -20 11 -47 35 -59 55 -40 64 -101 80
-176 46 -28 -13 -46 -30 -58 -56 -22 -46 -16 -74 31 -143 20 -29 34 -54 32
-55 -100 -66 -103 -67 -250 -67 -85 0 -139 4 -137 10 6 18 403 679 408 679 3
0 59 -90 125 -201z"/>
</g>
</svg>
