<?xml version="1.0" encoding="UTF-8" standalone="no"?>
<!-- Created with Inkscape (http://www.inkscape.org/) -->

<svg
   width="128.56668mm"
   height="21.773714mm"
   viewBox="0 0 128.56668 21.773714"
   version="1.1"
   id="svg1"
   xml:space="preserve"
   sodipodi:docname="logo-black-triangle-full.svg"
   inkscape:version="1.4 (e7c3feb100, 2024-10-09)"
   xmlns:inkscape="http://www.inkscape.org/namespaces/inkscape"
   xmlns:sodipodi="http://sodipodi.sourceforge.net/DTD/sodipodi-0.dtd"
   xmlns="http://www.w3.org/2000/svg"
   xmlns:svg="http://www.w3.org/2000/svg"><sodipodi:namedview
     id="namedview1"
     pagecolor="#ffffff"
     bordercolor="#000000"
     borderopacity="0.25"
     inkscape:showpageshadow="2"
     inkscape:pageopacity="0.0"
     inkscape:pagecheckerboard="0"
     inkscape:deskcolor="#d1d1d1"
     inkscape:document-units="mm"
     inkscape:zoom="0.65005677"
     inkscape:cx="399.96507"
     inkscape:cy="376.89016"
     inkscape:window-width="1920"
     inkscape:window-height="1023"
     inkscape:window-x="0"
     inkscape:window-y="0"
     inkscape:window-maximized="1"
     inkscape:current-layer="layer4"
     inkscape:clip-to-page="false"
     showgrid="true"
     showguides="true"><inkscape:grid
       id="grid23"
       units="mm"
       originx="556.05664"
       originy="164.51932"
       spacingx="0.5"
       spacingy="0.5"
       empcolor="#0099e5"
       empopacity="0.30196078"
       color="#0099e5"
       opacity="0.14901961"
       empspacing="5"
       enabled="true"
       visible="true"
       dotted="false" /><sodipodi:guide
       position="-0.011078249,139.17509"
       orientation="1,0"
       id="guide34"
       inkscape:locked="false" /><sodipodi:guide
       position="128.50522,150.46561"
       orientation="1,0"
       id="guide35"
       inkscape:locked="false" /><inkscape:page
       x="0"
       y="0"
       width="128.56668"
       height="21.773714"
       id="page2"
       margin="0"
       bleed="0" /></sodipodi:namedview><defs
     id="defs1" /><g
     id="g33"
     style="display:inline"
     inkscape:label="black triangle"
     transform="translate(-10.872515,-118.94524)"><path
       id="path4"
       style="display:inline;fill:#F7F1E8;stroke-width:0.207868"
       d="m 17.648657,121.21225 -6.512499,0.0303 -0.04154,9.97845 h 6.196304 c 0.131632,0.0827 2.454605,-0.62369 2.463857,-2.94582 0.0075,-1.88675 -1.730167,-2.36132 -1.730167,-2.36132 0.01957,-0.012 1.541457,-0.58969 1.551726,-2.29093 0.01065,-1.76604 -1.927683,-2.41072 -1.927683,-2.41072 z m -4.444946,1.75078 3.234422,0.0183 c 0,0 0.712125,0.2067 0.674773,1.14838 -0.02941,0.74126 -0.289925,0.96088 -0.878647,1.22227 l -1.889535,-0.0339 v 1.5746 h 1.852236 c 0.516615,0.007 1.057686,0.54081 1.04946,1.33505 -0.0073,0.7043 -0.489844,0.99117 -0.768022,1.24405 h -3.274687 z"
       inkscape:label="B" /><path
       style="display:inline;fill:#F7F1E8;stroke-width:0.207868"
       d="M 21.125906,121.23249 H 23.3323 v 8.12449 h 4.574587 v 1.84893 h -6.766272 z"
       id="path5"
       inkscape:label="L"
       sodipodi:nodetypes="ccccccc" /><path
       style="display:inline;fill:#F7F1E8;stroke-width:0.207868"
       d="m 123.03613,121.19631 h 2.20639 v 8.12449 h 4.57458 v 1.84893 h -6.76627 z"
       id="path5-6"
       inkscape:label="L"
       sodipodi:nodetypes="ccccccc" /><path
       style="display:none;opacity:1;fill:#F7F1E8;stroke-width:0.207868"
       d="m 28.567605,131.17251 h 2.150563 l 3.555759,-7.69079 1.661798,3.47543 h -2.175001 l -0.757585,1.64803 h 3.665732 l 1.148594,2.56733 h 2.32163 l -4.704353,-10.00028 h -2.309411 z"
       id="path6"
       inkscape:label="A" /><path
       style="display:inline;fill:#F7F1E8;stroke-width:0.207868"
       d="m 87.584785,131.16818 h 2.15057 l 3.555754,-7.6908 1.661802,3.47544 h -2.175004 l -0.757583,1.64803 h 3.665727 l 1.148599,2.56733 h 2.321632 L 94.451929,121.1679 h -2.309411 z"
       id="path6-2"
       inkscape:label="A" /><path
       style="display:inline;fill:#F7F1E8;stroke-width:0.208;stroke-dasharray:none"
       d="m 49.558693,121.6726 c 0,0 -9.606905,-2.61293 -9.606905,4.33453 0,7.13363 9.530232,4.83471 9.530232,4.83471 l -0.01845,-1.89405 c 0,0 -7.055185,2.31158 -7.055185,-2.78912 0,-4.86377 7.127421,-2.68013 7.127421,-2.68013 z"
       id="path8"
       sodipodi:nodetypes="csccscc"
       inkscape:label="C" /><g
       id="g10"
       inkscape:label="K"
       transform="matrix(0.82020532,0,0,0.75254202,-11.352203,-28.058469)"
       style="display:inline"><path
         style="fill:#F7F1E8;stroke-width:0.264583"
         d="m 76.197763,198.36196 h 2.75123 v 13.33782 h -2.783408 v -13.37 z"
         id="path9" /><path
         style="fill:#F7F1E8;stroke-width:0.264583"
         d="m 85.061387,198.35435 -4.707707,5.36767 c 0,0 -0.268014,0.38712 -0.268014,1.13329 0,0.88044 0.400004,1.24256 0.400004,1.24256 l 4.619714,5.57299 h 3.842428 l -6.247612,-6.87824 5.558322,-6.43827 z"
         id="path10"
         sodipodi:nodetypes="ccscccccc" /></g><path
       style="display:inline;fill:#F7F1E8;stroke-width:0.207868"
       d="m 72.815725,121.21081 v 1.82494 h -3.027417 v 8.18539 h -2.266903 v -8.17197 h -3.071287 v -1.90545 z"
       id="path11"
       inkscape:label="T" /><path
       style="display:inline;fill:#F7F1E8;stroke-width:0.207868"
       d="m 73.883362,131.20772 v -9.99691 h 6.493581 c 0,0 2.164522,0.68435 2.164522,2.77767 0,2.09331 -2.574025,2.97894 -2.574025,2.97894 l 3.510035,4.20005 h -3.085907 l 0.117002,0.0134 -3.232167,-4.22688 v -1.15401 h 0.994507 c 0,0 0.46801,-0.0671 0.892138,-0.28179 0.424128,-0.2147 0.892137,-0.77827 0.892137,-1.32844 0,-0.56614 -0.658133,-1.08691 -0.658133,-1.08691 h -3.188285 v 8.10487 z"
       id="path12"
       sodipodi:nodetypes="cccscccccccsscccc"
       inkscape:label="R" /><path
       style="display:inline;fill:#F7F1E8;stroke-width:0.207868"
       d="m 84.164865,121.21081 v 9.97007 h 2.281524 v -10.01033 z"
       id="path13"
       inkscape:label="I" /><path
       style="display:inline;fill:#F7F1E8;stroke-width:0.207868"
       d="m 100.25256,131.18088 v -10.064 h 2.00366 l 5.67456,7.00455 v -6.95088 h 2.04753 v 10.05059 h -2.2084 l -5.41132,-6.85694 v 6.85694 h -2.10603 z"
       id="path14"
       inkscape:label="N" /><path
       style="display:inline;fill:#F7F1E8;stroke-width:0.207868"
       d="m 121.20572,123.40612 0.0198,-1.84243 c 0,0 -9.65936,-2.59755 -9.65936,4.5964 0,7.19395 9.5103,4.59537 9.5103,4.59537 v -4.4039 h -2.23597 v 2.92682 c 0,0 -4.41268,1.39503 -4.77043,-3.09094 -0.35776,-4.48595 7.13567,-2.78132 7.13567,-2.78132 z"
       id="path15"
       sodipodi:nodetypes="ccsccccsc"
       inkscape:label="G" /><path
       style="display:inline;fill:#F7F1E8;stroke-width:0.208;stroke-dasharray:none"
       d="m 139.2004,122.98109 v -1.8526 h -7.77627 v 10.12035 h 7.79296 v -1.83728 h -5.52349 v -2.2966 h 5.17305 v -1.8679 h -5.17305 v -2.29659 z"
       id="path16"
       inkscape:label="E" /></g><g
     inkscape:groupmode="layer"
     id="layer4"
     inkscape:label="A-Elite"
     style="display:inline;stroke-width:0.208;stroke-dasharray:none"
     transform="translate(-10.133993,-108.41057)"><path
       style="display:inline;fill:#F7F1E8;fill-opacity:1;stroke:#F7F1E8;stroke-width:0.19762;stroke-dasharray:none;stroke-opacity:1"
       d="m 28.043638,120.63202 0.328487,-0.70832 5.225167,-11.27828 5.565307,11.9866 -8.447057,0.0174 1.856265,-3.99183 0.761644,1.61053 -0.343857,0.83468 h 3.322473 l -2.775019,-5.94646 -3.492373,7.49444 z"
       id="path17"
       inkscape:label="A-cont"
       sodipodi:nodetypes="cccccccccccc" /><path
       style="display:inline;fill:#F7F1E8;fill-opacity:1;stroke:#F7F1E8;stroke-width:0.19762;stroke-miterlimit:4;stroke-dasharray:none;stroke-opacity:1"
       d="m 35.379695,118.52276 -1.840806,-3.97019 -0.63123,1.37497 1.22281,2.59506 z"
       id="path18"
       inkscape:label="A-in"
       sodipodi:nodetypes="ccccc" /><path
       style="display:none;fill:#F7F1E8;fill-opacity:1;stroke:#F7F1E8;stroke-width:0.19762;stroke-miterlimit:4;stroke-dasharray:none;stroke-opacity:1"
       d="m 27.395154,118.20503 6.03661,-13.51062 4.983647,10.77525 -0.05525,1.94677 -4.766429,-10.27429 -5.74365,12.36683 0.03189,-1.29906 z"
       id="path19"
       inkscape:label="A-+"
       sodipodi:nodetypes="cccccccc" /></g><g
     id="g36"
     inkscape:label="bjj"
     transform="translate(-12.642608,-118.94524)"><g
       inkscape:groupmode="layer"
       id="layer7"
       inkscape:label="BJJ"
       transform="matrix(1.9364737,0,0,1.9364737,-85.9186,-106.23854)"><path
         id="path28"
         style="display:inline;opacity:1;fill:#F7F1E8;stroke-width:0.0688317"
         d="m 81.43692,124.08404 -2.156496,0.0101 -0.01375,3.30418 h 2.051793 c 0.04359,0.0274 0.812798,-0.20652 0.815862,-0.97545 0.0025,-0.62476 -0.572915,-0.78191 -0.572915,-0.78191 0.0065,-0.004 0.510427,-0.19526 0.513827,-0.75859 0.0035,-0.58479 -0.638317,-0.79827 -0.638317,-0.79827 z m -1.471863,0.57974 1.07102,0.006 c 0,0 0.235806,0.0685 0.223438,0.38026 -0.0097,0.24546 -0.096,0.31818 -0.290948,0.40474 l -0.625685,-0.0112 v 0.5214 h 0.613335 c 0.171066,0.002 0.350233,0.17907 0.347508,0.44207 -0.0024,0.23322 -0.162202,0.32822 -0.254315,0.41196 h -1.084353 z"
         inkscape:label="B" /><path
         style="opacity:0.845;fill:#F7F1E8;fill-opacity:1;stroke:#F7F1E8;stroke-width:0.208;stroke-miterlimit:4;stroke-dasharray:none;stroke-opacity:1"
         d="m 83.623637,124.59893 1.177046,-0.0213 -0.0222,1.99613 c 0,0 -0.157727,0.4249 -0.573697,0.37262 -0.435316,-0.091 -0.612866,-0.34134 -0.612866,-0.34134 l -0.301305,0.34694 c 0,0 0.172537,0.22093 0.437661,0.34278 0.188616,0.0867 0.379518,0.11958 0.617323,0.12154 0.668017,0.006 0.912374,-0.55411 0.926705,-0.6641 l 0.02823,-2.58648 -1.682044,0.0115 z"
         id="path29"
         sodipodi:nodetypes="ccccccsscccc"
         inkscape:label="J" /><path
         style="opacity:0.845;fill:#F7F1E8;fill-opacity:1;stroke:#F7F1E8;stroke-width:0.208;stroke-miterlimit:4;stroke-dasharray:none;stroke-opacity:1"
         d="m 86.976999,124.60807 1.177046,-0.0213 -0.0222,1.99613 c 0,0 -0.157727,0.4249 -0.573697,0.37262 -0.435316,-0.091 -0.612866,-0.34134 -0.612866,-0.34134 l -0.301305,0.34694 c 0,0 0.172537,0.22093 0.437661,0.34278 0.188616,0.0867 0.379518,0.11958 0.617323,0.12154 0.668017,0.006 0.912374,-0.55411 0.926705,-0.6641 l 0.02823,-2.58648 -1.682044,0.0115 z"
         id="path30"
         sodipodi:nodetypes="ccccccsscccc"
         inkscape:label="J" /></g></g><g
     id="g35"
     inkscape:label="lineas"
     transform="translate(-10.872515,-118.94524)"><g
       inkscape:groupmode="layer"
       id="layer8"
       inkscape:label="Lineas"
       transform="translate(0.6779845,10.347335)"><path
         style="fill:#F7F1E8;fill-opacity:1;stroke:#F7F1E8;stroke-width:0.226765;stroke-miterlimit:4;stroke-dasharray:none;stroke-opacity:1"
         d="m 10.197179,127.17021 51.791267,1.20997 v -2.38092 z"
         id="path31"
         inkscape:label="Linea-Izq" /><path
         style="fill:#F7F1E8;fill-opacity:1;stroke:#F7F1E8;stroke-width:0.226765;stroke-miterlimit:4;stroke-dasharray:none;stroke-opacity:1"
         d="m 138.75856,127.17021 -51.791262,1.20997 v -2.38092 z"
         id="path32"
         inkscape:label="Linea-Der" /></g></g></svg>
