<?xml version="1.0" standalone="no"?>
<!DOCTYPE svg PUBLIC "-//W3C//DTD SVG 20010904//EN"
 "http://www.w3.org/TR/2001/REC-SVG-20010904/DTD/svg10.dtd">
<svg version="1.0" xmlns="http://www.w3.org/2000/svg"
 width="512.000000pt" height="512.000000pt" viewBox="0 0 512.000000 512.000000"
 preserveAspectRatio="xMidYMid meet">

<g transform="translate(0.000000,512.000000) scale(0.100000,-0.100000)"
fill="#000000" stroke="none">
<path d="M2140 5092 l-30 -30 0 -167 0 -167 29 -29 c37 -36 79 -38 118 -5 l28
24 0 176 c0 164 -1 177 -21 196 -11 11 -37 23 -57 27 -31 5 -40 1 -67 -25z"/>
<path d="M1505 4785 c-26 -25 -33 -72 -15 -104 12 -23 203 -180 246 -202 64
-32 124 7 124 82 0 35 -6 43 -82 107 -145 121 -177 142 -214 142 -24 0 -43 -8
-59 -25z"/>
<path d="M2775 4791 c-63 -39 -226 -183 -235 -207 -24 -63 27 -120 102 -115
22 1 263 193 271 216 35 89 -55 158 -138 106z"/>
<path d="M2105 4321 c-121 -29 -241 -170 -251 -295 -2 -23 -11 -266 -19 -541
-8 -275 -18 -551 -21 -613 l-6 -114 -35 58 c-81 134 -163 222 -242 257 -87 38
-236 5 -323 -72 -90 -79 -109 -185 -59 -334 16 -47 48 -170 71 -274 111 -499
166 -669 282 -862 111 -185 249 -353 459 -562 l147 -146 4 -209 c4 -187 6
-215 26 -265 59 -149 181 -267 332 -321 63 -22 79 -23 425 -26 403 -4 452 1
562 54 80 38 182 131 226 206 61 104 70 154 75 403 l4 230 29 45 c45 72 106
211 157 359 l47 136 0 700 0 700 -33 67 c-49 100 -134 159 -253 173 -70 9
-129 -7 -173 -46 l-35 -30 -5 46 c-3 25 -8 65 -12 89 -7 61 -57 158 -101 197
-61 53 -117 73 -208 73 -52 -1 -96 -7 -125 -18 -25 -9 -52 -19 -60 -22 -10 -3
-24 13 -44 51 -33 64 -85 109 -151 132 -65 22 -194 14 -254 -15 -25 -12 -48
-22 -53 -22 -4 0 -8 129 -8 288 0 267 -2 290 -21 332 -44 97 -116 159 -215
185 -62 16 -91 17 -139 6z m120 -191 c73 -35 75 -45 75 -322 0 -135 3 -387 7
-562 l6 -317 25 -24 c34 -34 90 -34 122 0 20 21 26 48 46 211 26 203 29 211
96 245 71 36 160 21 189 -32 6 -12 26 -118 45 -237 31 -200 35 -219 59 -239
32 -28 84 -30 116 -4 23 18 24 26 29 172 l5 153 32 22 c47 32 107 38 151 17
56 -28 73 -59 83 -154 20 -187 32 -279 50 -374 21 -111 44 -145 99 -145 53 0
80 36 101 135 25 118 69 212 103 221 60 15 139 -42 151 -109 3 -18 5 -322 3
-677 l-3 -645 -38 -107 c-52 -150 -102 -262 -152 -339 l-43 -66 -4 -244 c-4
-226 -6 -248 -28 -304 -31 -80 -102 -154 -183 -191 l-62 -29 -375 0 -375 0
-55 26 c-72 34 -116 72 -155 134 -49 78 -55 113 -55 328 0 108 -4 206 -9 219
-5 13 -92 106 -193 208 -324 325 -468 531 -552 789 -48 146 -67 218 -131 503
-31 136 -67 280 -80 319 -34 99 -32 120 10 157 44 39 111 51 149 27 32 -21
111 -128 160 -216 52 -94 71 -159 96 -314 24 -149 36 -187 73 -227 31 -33 64
-43 99 -29 61 23 57 -23 90 988 l30 928 25 43 c26 45 74 82 107 82 11 0 38 -9
61 -20z"/>
<path d="M1520 4157 c-74 -18 -145 -39 -157 -45 -49 -27 -58 -93 -17 -137 23
-25 30 -27 77 -22 29 3 104 18 167 33 129 31 170 58 170 113 0 38 -36 80 -75
86 -16 2 -91 -10 -165 -28z"/>
<path d="M2694 4180 c-51 -20 -70 -94 -36 -138 13 -17 47 -29 137 -52 66 -17
145 -33 176 -36 53 -6 56 -5 82 26 29 34 33 54 17 94 -13 35 -50 50 -208 86
-147 33 -139 32 -168 20z"/>
</g>
</svg>
