<?xml version="1.0" standalone="no"?>
<!DOCTYPE svg PUBLIC "-//W3C//DTD SVG 20010904//EN"
 "http://www.w3.org/TR/2001/REC-SVG-20010904/DTD/svg10.dtd">
<svg version="1.0" xmlns="http://www.w3.org/2000/svg"
 width="512.000000pt" height="512.000000pt" viewBox="0 0 512.000000 512.000000"
 preserveAspectRatio="xMidYMid meet">

<g transform="translate(0.000000,512.000000) scale(0.100000,-0.100000)"
fill="#000000" stroke="none">
<path d="M2565 4871 c-92 -24 -173 -90 -215 -176 l-25 -50 -3 -383 c-2 -294
-6 -382 -15 -378 -7 3 -36 12 -66 22 -133 41 -297 -31 -362 -157 -16 -31 -24
-39 -37 -33 -9 4 -42 16 -72 27 -133 47 -304 -25 -371 -155 -11 -21 -21 -38
-23 -38 -2 0 -25 10 -52 22 -67 30 -180 31 -246 1 -66 -30 -141 -104 -169
-166 l-24 -52 -3 -690 c-3 -752 -1 -793 54 -966 45 -142 129 -295 224 -404
l40 -46 0 -480 0 -480 25 -24 24 -25 831 0 831 0 24 25 25 24 0 480 0 480 40
46 c95 109 179 262 224 404 53 169 57 227 54 811 l-3 535 -34 63 c-19 35 -48
74 -64 88 -45 38 -117 71 -169 79 l-47 7 -3 682 -3 681 -34 63 c-57 105 -144
160 -260 167 -36 2 -79 1 -96 -4z m163 -178 c14 -10 35 -32 46 -47 21 -27 21
-38 26 -918 l5 -890 24 -19 c32 -26 77 -24 106 6 24 23 25 29 25 160 0 149 -1
148 64 121 18 -8 46 -31 62 -52 l29 -37 0 -556 c0 -538 -1 -559 -22 -641 -44
-172 -121 -318 -238 -449 l-55 -62 0 -454 0 -455 -720 0 -720 0 0 455 0 454
-57 63 c-114 127 -192 275 -235 444 -23 88 -23 94 -23 806 0 708 0 717 21 744
39 53 71 69 134 69 63 0 95 -16 134 -69 20 -25 21 -45 26 -278 5 -248 5 -250
29 -269 30 -24 72 -24 102 0 l24 19 5 330 c5 314 6 332 26 358 39 53 71 69
134 69 63 0 95 -16 134 -69 20 -26 21 -44 26 -358 l5 -330 24 -19 c30 -24 72
-24 102 0 l24 19 5 410 c5 395 6 412 26 438 39 53 71 69 134 69 63 0 95 -16
134 -69 20 -26 21 -43 26 -438 l5 -410 24 -19 c32 -26 77 -24 106 6 l25 24 0
870 c0 592 3 879 11 898 14 37 47 72 84 89 40 19 119 12 153 -13z"/>
<path d="M1223 4537 c-165 -164 -183 -186 -183 -216 0 -30 18 -52 177 -213 98
-98 188 -181 200 -185 51 -12 103 33 103 89 0 13 -38 60 -102 124 l-102 104
398 0 397 0 24 25 c33 32 33 78 0 110 l-24 25 -398 0 -398 0 97 98 c53 53 99
107 103 120 15 50 -30 102 -88 102 -15 0 -79 -58 -204 -183z"/>
<path d="M3804 4708 c-24 -11 -44 -48 -44 -80 0 -13 38 -60 102 -124 l102
-104 -398 0 -397 0 -24 -25 c-33 -32 -33 -78 0 -110 l24 -25 397 0 398 0 -102
-104 c-64 -64 -102 -111 -102 -124 0 -57 50 -100 102 -87 14 4 102 84 202 184
159 160 176 181 176 211 0 31 -17 52 -183 217 -190 190 -200 197 -253 171z"/>
</g>
</svg>
