<?xml version="1.0" encoding="UTF-8"?>
<svg version="1.1" xmlns="http://www.w3.org/2000/svg" width="512" height="512">
<path d="M0 0 C0.69959398 -0.00282738 1.39918797 -0.00565475 2.11998177 -0.00856781 C5.82893362 -0.02349647 9.53784729 -0.03276347 13.24682617 -0.03710938 C16.27722309 -0.04147932 19.30733294 -0.05532157 22.33764648 -0.078125 C54.56019674 -0.31569758 54.56019674 -0.31569758 68.37890625 3.203125 C69.31629639 3.42226563 70.25368652 3.64140625 71.21948242 3.8671875 C73.59134408 4.45390755 75.9185728 5.11081668 78.25390625 5.828125 C79.07850342 6.08045898 79.90310059 6.33279297 80.75268555 6.59277344 C101.57755776 13.25388118 119.24780853 24.65053953 135.37890625 39.203125 C136.15492188 39.89535156 136.9309375 40.58757812 137.73046875 41.30078125 C161.8647664 64.07478212 178.99076052 99.00835575 180.47447348 132.35073638 C180.51250324 134.67435429 180.52182603 136.99623075 180.51934814 139.32015991 C180.52380483 140.64668436 180.52380483 140.64668436 180.52835155 142.00000727 C180.53698183 144.9458154 180.53854199 147.89158261 180.54003906 150.83740234 C180.54467139 152.95713385 180.54969661 155.07686452 180.55508423 157.19659424 C180.56817353 162.94507934 180.57464685 168.69355279 180.57909489 174.44205046 C180.5820323 178.04034422 180.58613844 181.63863485 180.59059906 185.23692703 C180.60426723 196.51473232 180.61393621 207.79253038 180.61780095 219.07034338 C180.6222748 232.05158538 180.63979432 245.03272173 180.66880155 258.01393163 C180.69048795 268.07119342 180.700509 278.12842565 180.70184207 288.18571055 C180.70288547 294.1811134 180.70869328 300.17641684 180.72666168 306.17179489 C180.7432622 311.82058863 180.74524028 317.46920952 180.73652267 323.1180191 C180.73575857 325.17776836 180.74001105 327.23752738 180.74998093 329.29725266 C180.82287016 345.31031586 179.53370335 360.75586555 174.75390625 376.140625 C174.37540527 377.37075317 174.37540527 377.37075317 173.98925781 378.62573242 C161.90391813 416.20740257 134.50067397 446.07002617 99.76171875 464.109375 C93.04467413 467.46880404 86.14130533 470.12726704 79.00390625 472.453125 C78.2984668 472.68733154 77.59302734 472.92153809 76.86621094 473.1628418 C74.38705358 473.93076382 71.89832065 474.57918243 69.37890625 475.203125 C67.79867676 475.61135498 67.79867676 475.61135498 66.18652344 476.02783203 C51.97482426 479.12139803 37.44633051 478.65942925 22.97753906 478.59423828 C19.14845082 478.57714686 15.31998789 478.58730028 11.49092102 478.60455418 C-18.83503332 478.72083179 -18.83503332 478.72083179 -32.62109375 475.203125 C-33.56855469 474.97882813 -34.51601562 474.75453125 -35.4921875 474.5234375 C-37.89503721 473.91998209 -40.25443193 473.2471154 -42.62109375 472.515625 C-43.45012207 472.26143799 -44.27915039 472.00725098 -45.13330078 471.74536133 C-63.14669603 466.00163605 -79.31660599 456.53148258 -93.62109375 444.203125 C-94.57628906 443.38199219 -95.53148437 442.56085938 -96.515625 441.71484375 C-125.07975995 416.63357732 -140.98523704 381.76311297 -144.62109375 344.203125 C-145.0769253 337.09948906 -145.03368804 329.98993593 -145.00927734 322.875 C-145.01335669 320.8370333 -145.01870611 318.79906881 -145.02520752 316.7611084 C-145.03872509 311.29411755 -145.03364774 305.82729913 -145.02407026 300.36030579 C-145.01639197 294.59664498 -145.02354167 288.83299742 -145.02822876 283.06933594 C-145.0336628 273.39645785 -145.02655685 263.72364882 -145.01220703 254.05078125 C-144.99588514 242.92115111 -145.00117531 231.79168594 -145.01768625 220.66205978 C-145.03136856 211.04863463 -145.03318802 201.43525869 -145.02537024 191.82182693 C-145.02073058 186.10543368 -145.01996532 180.38911757 -145.02997971 174.67272949 C-145.03874608 169.29458524 -145.03245399 163.91665044 -145.01529694 158.53852844 C-145.01138309 156.5832402 -145.01237654 154.62793385 -145.01908493 152.6726532 C-145.12223312 119.51085361 -137.89249563 87.16285092 -117.62109375 60.203125 C-116.68716797 58.95595703 -116.68716797 58.95595703 -115.734375 57.68359375 C-91.51903395 26.49344858 -58.22609052 6.98189282 -19.22753906 0.65234375 C-12.84772604 -0.10517577 -6.41540392 0.01764653 0 0 Z M-92.19140625 57.73828125 C-104.94923216 71.40738044 -114.39237478 87.89949492 -120.49609375 105.515625 C-120.90722412 106.66708008 -120.90722412 106.66708008 -121.32666016 107.84179688 C-129.63624784 133.32246922 -126.62109375 161.09077491 -126.62109375 187.203125 C-90.32109375 187.203125 -54.02109375 187.203125 -16.62109375 187.203125 C-16.4508291 166.30714184 -16.4508291 166.30714184 -16.32324219 145.41088867 C-16.29385156 142.77260616 -16.26302207 140.13433913 -16.23046875 137.49609375 C-16.23016663 136.82572586 -16.2298645 136.15535797 -16.22955322 135.4646759 C-16.21487123 123.43143756 -14.46795564 113.58233639 -6.6171875 104.14453125 C-2.03066918 99.68367097 3.51579381 97.54836998 9.37890625 95.203125 C9.37890625 69.793125 9.37890625 44.383125 9.37890625 18.203125 C-31.11537783 18.203125 -63.15924585 29.10321727 -92.19140625 57.73828125 Z M27.37890625 18.203125 C27.37890625 24.473125 27.37890625 30.743125 27.37890625 37.203125 C32.04487969 33.2037192 36.5035676 29.23593169 40.81640625 24.890625 C41.35716797 24.35373047 41.89792969 23.81683594 42.45507812 23.26367188 C45.15089534 21.09579674 45.15089534 21.09579674 46.37890625 18.203125 C40.10890625 18.203125 33.83890625 18.203125 27.37890625 18.203125 Z M68.37890625 22.203125 C61.40196547 28.2148612 54.5752257 34.38094484 47.87890625 40.703125 C47.39193897 41.1626997 46.90497169 41.6222744 46.40324783 42.0957756 C30.94008778 56.19906012 30.94008778 56.19906012 24.50735474 75.32418823 C24.47294678 82.0678678 25.53568338 88.72452513 27.37890625 95.203125 C31.91342917 94.33709334 34.28353918 91.71409811 37.43261719 88.52172852 C38.32594505 87.63387665 38.32594505 87.63387665 39.23731995 86.72808838 C41.20344825 84.77006501 43.15851401 82.80139197 45.11328125 80.83203125 C46.47468836 79.47010564 47.83661357 78.10869775 49.19903564 76.74778748 C52.05166765 73.89506576 54.89905878 71.03724451 57.74267578 68.17553711 C61.39517397 64.50031969 65.05867575 60.83631183 68.72591782 57.17581272 C71.53832921 54.36673554 74.34574311 51.55270819 77.15155792 48.73704338 C78.50108206 47.38365992 79.85196954 46.03163456 81.204216 44.68097115 C83.08872079 42.79683546 84.9666196 40.90636246 86.84277344 39.01391602 C87.40688431 38.45228256 87.97099518 37.89064911 88.55220032 37.31199646 C91.46113643 34.73648797 91.46113643 34.73648797 92.37890625 31.203125 C89.69334094 30.07331462 87.00562159 28.94918748 84.31640625 27.828125 C83.56423828 27.51101562 82.81207031 27.19390625 82.03710938 26.8671875 C81.29267578 26.5578125 80.54824219 26.2484375 79.78125 25.9296875 C79.10570068 25.64689941 78.43015137 25.36411133 77.73413086 25.07275391 C74.66240007 23.93856659 71.5335353 23.07578868 68.37890625 22.203125 Z M102.3527832 47.92285156 C101.73640991 48.53090134 101.12003662 49.13895111 100.48498535 49.76542664 C98.44019086 51.78603779 96.40321882 53.81431127 94.3671875 55.84375 C92.95525476 57.24672358 91.54324101 58.64961563 90.13114929 60.0524292 C87.16921427 62.99784953 84.21172498 65.94765873 81.2565918 68.89990234 C77.46160697 72.68949743 73.650735 76.46267427 69.8356905 80.23205948 C66.91314645 83.12492289 64.001859 86.02891356 61.09361839 88.9361496 C59.69300609 90.33254261 58.28825253 91.72479417 56.87938881 93.11286163 C54.91323927 95.05228163 52.96337302 97.00673465 51.0168457 98.96582031 C50.42729599 99.54053574 49.83774628 100.11525116 49.23033142 100.7073822 C47.44453084 102.46691687 47.44453084 102.46691687 45.37890625 105.203125 C45.74405851 108.22625666 46.75661702 109.86107279 48.31640625 112.578125 C51.34136435 118.36404486 51.69523352 124.79819103 52.37890625 131.203125 C57.25867376 127.13757829 61.84745881 122.87486224 66.32397461 118.37158203 C66.97848602 117.71721664 67.63299744 117.06285126 68.30734253 116.38865662 C70.44686039 114.24844811 72.58282501 112.10473117 74.71875 109.9609375 C76.2106828 108.46713751 77.70283811 106.97355972 79.19520569 105.48019409 C83.10509574 101.56650261 87.01197219 97.64981635 90.91821289 93.73248291 C94.91174631 89.72868412 98.90814434 85.72774687 102.90429688 81.7265625 C110.7319611 73.88820287 118.55644224 66.04667407 126.37890625 58.203125 C124.65374505 54.47311292 122.60911766 52.36344391 119.50390625 49.640625 C118.64023437 48.87621094 117.7765625 48.11179687 116.88671875 47.32421875 C109.97496455 41.47829581 108.76727575 41.51566614 102.3527832 47.92285156 Z M134.99375916 75.27287292 C134.26876724 75.95458054 133.54377533 76.63628815 132.79681396 77.33865356 C131.59596161 78.47655838 131.59596161 78.47655838 130.37084961 79.63745117 C129.53189651 80.42967575 128.69294342 81.22190033 127.8285675 82.03813171 C120.04457999 89.40945378 112.3375617 96.86000714 104.65775204 104.33959484 C99.49980697 109.3597821 94.3185333 114.34970397 89.06713867 119.2722168 C84.48056214 123.57162262 79.94979851 127.92192459 75.47507006 132.33772451 C73.10799272 134.6702276 70.72125055 136.95893447 68.27519035 139.21010399 C59.04533049 147.73533624 51.69728411 154.97137436 51.14009315 168.02825361 C51.04975292 174.45194657 51.56041451 180.83431856 52.37890625 187.203125 C55.42579213 187.5065883 56.91823193 187.52775137 59.46217823 185.73509216 C60.15075759 185.04190384 60.83933695 184.34871552 61.54878235 183.63452148 C62.74548805 182.44812576 62.74548805 182.44812576 63.96636963 181.23776245 C64.82736267 180.35879303 65.68835571 179.47982361 66.57543945 178.57421875 C67.49300522 177.65738312 68.41057098 176.74054749 69.35594177 175.79592896 C71.87101636 173.28228967 74.37037125 170.75352632 76.86721063 168.22179031 C79.47944364 165.57831296 82.10583137 162.94897684 84.73075867 160.31811523 C89.69891267 155.33441716 94.65418338 150.33811024 99.60496539 145.33716106 C105.24201269 139.64423793 110.89325458 133.96549631 116.54574072 128.28790855 C128.17267712 116.60870123 139.78163431 104.91179076 151.37890625 93.203125 C150.27558152 90.95918324 149.16826741 88.71736222 148.05859375 86.4765625 C147.74881592 85.84548584 147.43903809 85.21440918 147.11987305 84.56420898 C144.89058154 80.07340231 142.52962348 76.09518746 139.37890625 72.203125 C137.51788037 72.203125 136.27740499 74.0637073 134.99375916 75.27287292 Z M4.37890625 118.203125 C1.82740797 123.29357336 1.00135172 127.00373217 0.99072266 132.78735352 C0.9854657 133.51025574 0.98020874 134.23315796 0.97479248 134.97796631 C0.96168488 137.34621358 0.97029623 139.71377821 0.98046875 142.08203125 C0.97844557 143.73917265 0.9755321 145.39631317 0.97177124 147.05345154 C0.96736061 150.5174105 0.97373892 153.98113657 0.98779297 157.44506836 C1.00489764 161.87578871 0.99502777 166.30596431 0.97707558 170.73666477 C0.96621496 174.15541154 0.96969427 177.57402997 0.97745895 180.99278069 C0.97945397 182.62619021 0.9770263 184.25961156 0.97002029 185.89300728 C0.96236653 188.17841427 0.97406322 190.4629487 0.99072266 192.74829102 C0.99310944 194.04622086 0.99549622 195.3441507 0.99795532 196.68141174 C1.5888937 202.14436085 3.62793459 206.05704937 7.87890625 209.515625 C8.46671875 210.00675781 9.05453125 210.49789062 9.66015625 211.00390625 C13.40998616 213.62026485 16.95285876 213.56591578 21.37890625 213.203125 C26.81883304 211.58250165 30.48484017 208.8444058 33.36206055 203.97003174 C35.69649349 197.61787995 35.04399851 190.47242639 34.97265625 183.7890625 C34.97094301 182.08851201 34.971013 180.38795888 34.97277832 178.68740845 C34.97113025 175.13509627 34.95252406 171.58341912 34.92089844 168.03125 C34.88116164 163.48729627 34.87686342 158.94417051 34.88436127 154.40007591 C34.88743586 150.89293893 34.87529407 147.38598671 34.85823059 143.87889481 C34.8512213 142.20363143 34.84807354 140.52834713 34.84892273 138.85306931 C34.8471173 136.51022471 34.82567524 134.16835815 34.79882812 131.82568359 C34.80322403 130.79688332 34.80322403 130.79688332 34.80770874 129.74729919 C34.71581147 124.52827609 33.44501761 120.41644023 29.84375 116.55859375 C24.6527764 112.5890257 21.77544306 111.72865348 15.27734375 111.796875 C10.60601162 112.45161697 7.37011446 114.59815473 4.37890625 118.203125 Z M157.37890625 112.203125 C147.72758219 121.83133143 138.07892134 131.46219779 128.43370056 141.09651852 C123.95549312 145.56949586 119.47635548 150.04153356 114.99511719 154.51147461 C110.67469668 158.82107074 106.35668689 163.13306848 102.04037476 167.44677925 C100.38893189 169.09636705 98.73660575 170.74507105 97.08340454 172.39289665 C94.77725277 174.69184397 92.47419398 176.99384607 90.171875 179.29663086 C89.47992035 179.98499023 88.7879657 180.67334961 88.07504272 181.38256836 C87.45239532 182.00659042 86.82974792 182.63061249 86.18823242 183.27354431 C85.64253098 183.81832397 85.09682953 184.36310362 84.53459167 184.92439175 C83.26715457 186.03950983 83.26715457 186.03950983 83.37890625 187.203125 C94.45912566 190.49044032 106.55186252 192.08434581 117.37890625 187.203125 C126.6427665 181.18145372 134.35513902 173.1655819 142.00390625 165.265625 C142.5129034 164.74583195 143.02190056 164.22603889 143.54632187 163.69049454 C147.00360448 160.15795378 150.38684174 156.56583233 153.73046875 152.92578125 C154.60698593 151.98768616 155.48350311 151.04959106 156.38658142 150.08306885 C161.43737304 144.46654049 161.43737304 144.46654049 162.95605469 137.31152344 C162.76596208 135.23217529 162.76596208 135.23217529 162.37890625 133.203125 C162.27821838 132.42797546 162.17753052 131.65282593 162.0737915 130.85418701 C161.78458518 128.68315958 161.40621764 126.54337777 161.00390625 124.390625 C160.87757813 123.65392578 160.75125 122.91722656 160.62109375 122.15820312 C159.96150002 118.50735181 159.1288855 115.46166037 157.37890625 112.203125 Z M157.34375 172.10546875 C156.53486328 172.91306641 155.72597656 173.72066406 154.89257812 174.55273438 C153.61737305 175.83374023 153.61737305 175.83374023 152.31640625 177.140625 C151.46240234 177.99076172 150.60839844 178.84089844 149.72851562 179.71679688 C148.51711914 180.93012695 148.51711914 180.93012695 147.28125 182.16796875 C146.15964478 183.29126587 146.15964478 183.29126587 145.01538086 184.43725586 C143.26561901 185.92410983 143.26561901 185.92410983 143.37890625 187.203125 C149.64890625 187.203125 155.91890625 187.203125 162.37890625 187.203125 C162.37890625 180.933125 162.37890625 174.663125 162.37890625 168.203125 C160.35485367 168.203125 158.65834697 170.79285181 157.34375 172.10546875 Z M-126.62109375 205.203125 C-126.70864712 229.06443834 -126.70864712 229.06443834 -126.76757812 252.92578125 C-126.78530648 262.67110996 -126.80602704 272.41636027 -126.84741211 282.16162109 C-126.87755205 289.26236149 -126.89672432 296.36303764 -126.90335923 303.46384025 C-126.90723041 307.2148687 -126.91616239 310.96571354 -126.93828392 314.71668243 C-127.13117806 344.18123353 -127.13117806 344.18123353 -120.55859375 372.765625 C-120.26186768 373.62220703 -119.9651416 374.47878906 -119.65942383 375.36132812 C-114.33631906 390.09765275 -106.7970114 403.31041143 -96.62109375 415.203125 C-95.780625 416.20601562 -94.94015625 417.20890625 -94.07421875 418.2421875 C-73.84869391 441.74026733 -44.36753347 456.69270241 -13.62109375 460.203125 C-3.5963962 460.83896418 6.44830588 460.73272179 16.48754883 460.65264893 C19.34812374 460.63658653 22.20837449 460.64675565 25.06895924 460.65636921 C45.91474908 460.78247394 45.91474908 460.78247394 66.37890625 457.203125 C67.22952637 456.98954346 68.08014648 456.77596191 68.95654297 456.5559082 C71.06744994 455.98783328 73.12357496 455.34825664 75.19140625 454.640625 C75.92439941 454.39159424 76.65739258 454.14256348 77.41259766 453.88598633 C95.8831397 447.29048153 111.17358749 436.56110896 125.37890625 423.203125 C126.26449219 422.41421875 126.26449219 422.41421875 127.16796875 421.609375 C140.90072707 408.85287912 150.25626176 391.22900238 156.25390625 373.703125 C156.5281543 372.91019043 156.80240234 372.11725586 157.08496094 371.30029297 C162.94982979 353.09005732 162.79061711 334.90106265 162.68308806 316.00742602 C162.66411139 312.10108204 162.66255453 308.19472831 162.65901184 304.28834534 C162.64975216 296.91878341 162.62522235 289.54935778 162.59496337 282.17985541 C162.55489862 272.20187141 162.53891527 262.22384915 162.52145672 252.24580479 C162.49339551 236.56480978 162.43358614 220.88410215 162.37890625 205.203125 C125.74890625 205.203125 89.11890625 205.203125 51.37890625 205.203125 C49.39890625 209.163125 47.41890625 213.123125 45.37890625 217.203125 C39.93612837 224.00659735 33.12712024 228.72037687 24.37890625 230.203125 C14.40846983 231.05280267 5.88528108 230.16180408 -2.38671875 224.21484375 C-7.70807035 219.7103663 -11.00154441 215.64285046 -13.62109375 209.203125 C-14.61109375 207.223125 -14.61109375 207.223125 -15.62109375 205.203125 C-52.25109375 205.203125 -88.88109375 205.203125 -126.62109375 205.203125 Z " fill="#000000" transform="translate(216.62109375,33.796875)"/>
<path d="M0 0 C3.43250143 1.9401095 4.70166193 3.14227804 6 6.875 C6 12.68828437 2.88468994 16.4566328 -1.10023499 20.46577454 C-1.6253215 20.97851425 -2.15040802 21.49125397 -2.69140625 22.01953125 C-3.23731918 22.56357101 -3.78323212 23.10761078 -4.34568787 23.6681366 C-5.49281975 24.80858296 -6.64352552 25.94544468 -7.79760742 27.07885742 C-9.5676449 28.8175538 -11.32661419 30.56686914 -13.08398438 32.31835938 C-14.20250125 33.42771259 -15.32162087 34.53645848 -16.44140625 35.64453125 C-17.23207237 36.42882256 -17.23207237 36.42882256 -18.03871155 37.22895813 C-21.47811504 40.60101853 -22.94871651 41.87936091 -27.8125 42.4375 C-31.49348195 42.37704592 -31.98688593 42.01070536 -35.0625 39.5 C-37.24797917 36.35815641 -37.25618233 33.86631674 -36.65548706 30.07150269 C-35.46375726 26.30533913 -32.88509783 24.00577967 -30.06640625 21.34765625 C-29.47327133 20.76205429 -28.88013641 20.17645233 -28.26902771 19.57310486 C-26.38270964 17.71915157 -24.47319515 15.89128413 -22.5625 14.0625 C-21.28165758 12.80821696 -20.00234314 11.55237155 -18.72460938 10.29492188 C-7.54978719 -0.63981247 -7.54978719 -0.63981247 0 0 Z " fill="#000000" transform="translate(416,18)"/>
<path d="M0 0 C1.24101974 -0.00855011 1.24101974 -0.00855011 2.5071106 -0.01727295 C4.25716882 -0.02671523 6.00724477 -0.03325387 7.75732422 -0.03710938 C10.42837681 -0.04681347 13.09865925 -0.07784285 15.76953125 -0.109375 C17.47134961 -0.11590558 19.17317346 -0.12115584 20.875 -0.125 C21.67098602 -0.1373468 22.46697205 -0.1496936 23.28707886 -0.16241455 C27.87342603 -0.14408024 30.85225685 0.22554067 34.5703125 3.203125 C36.72782784 6.43939802 36.8239477 7.03891338 36.4453125 10.703125 C36.38085938 11.4765625 36.31640625 12.25 36.25 13.046875 C35.29466493 16.07759316 34.3759055 16.66590225 31.5703125 18.203125 C28.43928859 18.67507073 25.33004666 18.6711532 22.16796875 18.671875 C21.25325302 18.67948853 20.33853729 18.68710205 19.39610291 18.69494629 C17.46372199 18.70573993 15.53128277 18.70860338 13.59887695 18.70410156 C10.6463061 18.70312944 7.69633618 18.74475372 4.74414062 18.7890625 C2.86458874 18.79426987 0.98502784 18.79695769 -0.89453125 18.796875 C-1.77487534 18.81327026 -2.65521942 18.82966553 -3.5622406 18.84655762 C-8.0413081 18.79619458 -9.85541008 18.65516206 -13.48632812 15.79711914 C-16.46759885 11.81772197 -16.12515961 10.07142977 -15.4296875 5.203125 C-11.32104587 -0.3222896 -6.38572678 0.03392174 0 0 Z " fill="#000000" transform="translate(403.4296875,75.796875)"/>
<path d="M0 0 C2.67585279 2.01255131 4.68305647 3.6380822 5.46592712 7.00210571 C5.64503847 9.44175943 5.66682063 11.83526125 5.62890625 14.28125 C5.63131821 15.17235474 5.63373016 16.06345947 5.63621521 16.98156738 C5.63523803 18.86096661 5.62187511 20.74039507 5.59692383 22.61962891 C5.56260867 25.4909068 5.57627211 28.35910638 5.59570312 31.23046875 C5.58880438 33.05990889 5.57913173 34.88934111 5.56640625 36.71875 C5.57136612 37.57408325 5.57632599 38.4294165 5.58143616 39.31066895 C5.50230938 43.32955465 5.29664118 45.50831634 3.17944336 49.01757812 C0.15262539 51.77077202 -1.95051673 52 -6 52 C-8.7601596 50.83459928 -10.37585864 49.87467025 -12.11791992 47.43334961 C-13.44716538 43.76642754 -13.30508018 40.10633931 -13.30078125 36.25390625 C-13.30506638 35.40577866 -13.3093515 34.55765106 -13.31376648 33.68382263 C-13.31950135 31.8926584 -13.32001625 30.10147088 -13.31567383 28.31030273 C-13.31251513 25.57560334 -13.33597845 22.84198749 -13.36132812 20.10742188 C-13.3636014 18.36458469 -13.36430449 16.62174461 -13.36328125 14.87890625 C-13.372491 14.0641835 -13.38170074 13.24946075 -13.39118958 12.41004944 C-13.35369587 7.79001835 -12.99618577 4.75402035 -10 1 C-6.84203893 -0.57898053 -3.39329364 -0.81928171 0 0 Z " fill="#000000" transform="translate(358,0)"/>
</svg>
