<?xml version="1.0" standalone="no"?>
<!DOCTYPE svg PUBLIC "-//W3C//DTD SVG 20010904//EN"
 "http://www.w3.org/TR/2001/REC-SVG-20010904/DTD/svg10.dtd">
<svg version="1.0" xmlns="http://www.w3.org/2000/svg"
 width="512.000000pt" height="512.000000pt" viewBox="0 0 512.000000 512.000000"
 preserveAspectRatio="xMidYMid meet">

<g transform="translate(0.000000,512.000000) scale(0.100000,-0.100000)"
fill="#000000" stroke="none">
<path d="M2240 5114 c-343 -42 -645 -189 -883 -431 -197 -199 -324 -437 -389
-724 l-23 -104 0 -1295 0 -1295 23 -104 c131 -583 551 -1001 1139 -1133 91
-21 123 -23 453 -23 330 0 362 2 457 23 580 127 1007 553 1135 1135 l23 102 0
1295 0 1295 -23 102 c-128 578 -556 1008 -1130 1134 -86 19 -133 22 -422 24
-179 2 -341 1 -360 -1z m230 -553 l0 -390 -54 -24 c-69 -32 -131 -94 -165
-166 l-26 -56 -3 -427 -3 -428 -555 0 -556 0 5 393 c4 352 6 401 25 477 59
246 164 439 330 612 97 101 157 149 271 217 191 115 410 176 644 180 l87 1 0
-389z m505 364 c260 -53 468 -166 656 -354 184 -185 288 -372 351 -631 19 -76
21 -125 25 -477 l5 -393 -556 0 -555 0 -3 428 -3 427 -26 56 c-34 72 -96 134
-165 166 l-54 24 0 391 0 391 123 -6 c67 -3 158 -13 202 -22z m-475 -1020
l-105 -106 -3 37 c-8 87 78 174 172 174 l41 0 -105 -105z m60 -370 l-170 -170
0 90 0 90 168 168 167 167 3 -87 3 -87 -171 -171z m8 -422 c-90 -90 -166 -163
-170 -163 -5 0 -8 39 -8 87 l0 88 168 168 167 167 3 -92 3 -92 -163 -163z
m143 -201 c-29 -57 -73 -85 -140 -90 l-56 -4 105 106 105 107 3 -40 c2 -25 -4
-54 -17 -79z m-452 -76 c59 -120 166 -186 301 -186 135 0 242 66 301 186 l32
64 559 0 559 0 -4 -817 c-3 -790 -4 -821 -24 -903 -64 -259 -171 -450 -352
-631 -194 -194 -412 -309 -689 -361 -93 -18 -671 -18 -764 0 -277 52 -496 167
-689 361 -184 184 -287 369 -352 631 -20 82 -21 112 -24 903 l-4 817 559 0
559 0 32 -64z"/>
<path d="M1920 4517 c-32 -16 -54 -61 -45 -95 3 -16 52 -72 114 -134 101 -101
111 -108 148 -108 52 0 83 31 83 84 0 33 -9 47 -97 138 -124 127 -150 142
-203 115z"/>
<path d="M1670 3912 c-65 -32 -63 -119 5 -147 47 -20 272 -21 319 -1 70 29 70
123 0 152 -52 22 -279 19 -324 -4z"/>
<path d="M3115 4512 c-16 -11 -72 -62 -122 -115 -82 -85 -93 -100 -93 -132 0
-49 36 -85 85 -85 32 0 47 11 137 98 55 53 107 110 115 125 40 78 -47 156
-122 109z"/>
<path d="M3124 3916 c-68 -30 -66 -124 2 -152 52 -22 279 -19 324 4 65 32 63
119 -5 147 -46 20 -277 20 -321 1z"/>
</g>
</svg>
